<svg version="1.2" baseProfile="tiny-ps" xmlns="http://www.w3.org/2000/svg" viewBox="0 0 512 512" width="512" height="512">
	<title>bug1-svg</title>
	<style>
		tspan { white-space:pre }
		.shp0 { fill: none;stroke: #80d4ff;stroke-linecap:round;stroke-linejoin:round;stroke-width: 10 } 
	</style>
	<path id="Shape 1" class="shp0" d="M482.1 271.04C487.42 271.04 492.03 273.03 495.92 277C499.81 280.98 501.76 285.67 501.76 291.11C501.76 296.54 499.81 301.24 495.92 305.22C492.03 309.18 487.42 311.17 482.1 311.17L413.29 311.17C413.29 346.9 406.42 377.21 392.7 402.07L456.6 467.59C460.49 471.57 462.44 476.26 462.44 481.7C462.44 487.13 460.49 491.83 456.6 495.81C452.92 499.77 448.31 501.76 442.78 501.76C437.25 501.76 432.64 499.77 428.95 495.81L368.13 434.05C367.1 435.1 365.56 436.45 363.52 438.12C361.48 439.8 357.17 442.78 350.62 447.06C344.06 451.34 337.41 455.16 330.65 458.5C323.89 461.84 315.49 464.88 305.46 467.59C295.43 470.31 285.49 471.66 275.66 471.66L275.66 190.8L236.34 190.8L236.34 471.66C225.89 471.66 215.5 470.25 205.16 467.43C194.82 464.62 185.9 461.16 178.43 457.09C170.95 453.01 164.2 448.94 158.16 444.86C152.12 440.79 147.66 437.39 144.79 434.68L140.19 430.29L83.97 495.17C79.87 499.56 74.95 501.76 69.22 501.76C64.31 501.76 59.9 500.09 56.01 496.75C52.12 492.99 50.02 488.33 49.72 482.79C49.41 477.25 50.99 472.39 54.48 468.22L116.53 397.06C104.65 373.24 98.71 344.61 98.71 311.17L29.9 311.17C24.57 311.17 19.96 309.18 16.08 305.22C12.18 301.24 10.24 296.54 10.24 291.11C10.24 285.67 12.18 280.98 16.08 277C19.96 273.03 24.57 271.04 29.9 271.04L98.71 271.04L98.71 178.88L45.57 124.65C41.67 120.69 39.73 115.98 39.73 110.55C39.73 105.12 41.67 100.41 45.57 96.45C49.46 92.47 54.06 90.49 59.39 90.49C64.71 90.49 69.32 92.47 73.22 96.45L126.36 150.68L385.64 150.68L438.78 96.45C442.67 92.47 447.28 90.49 452.61 90.49C457.93 90.49 462.53 92.47 466.43 96.45C470.32 100.41 472.27 105.12 472.27 110.55C472.27 115.98 470.32 120.69 466.43 124.65L413.29 178.88L413.29 271.04L482.1 271.04L482.1 271.04ZM354.3 110.55L157.7 110.55C157.7 82.76 167.27 59.09 186.42 39.55C205.56 20.01 228.76 10.24 256 10.24C283.24 10.24 306.43 20.01 325.58 39.55C344.72 59.09 354.3 82.76 354.3 110.55Z" />
</svg>