<svg version="1.2" baseProfile="tiny-ps" xmlns="http://www.w3.org/2000/svg" viewBox="0 0 512 512" width="512" height="512">
	<title>New Project</title>
	<style>
		tspan { white-space:pre }
		.shp0 { fill: none;stroke: #ffffff;stroke-linecap:round;stroke-linejoin:round;stroke-width: 10 } 
	</style>
	<path id="Shape 1" class="shp0" d="M491.52 271.67C497.06 271.67 501.86 273.74 505.92 277.88C509.97 282.02 512 286.91 512 292.57C512 298.23 509.97 303.13 505.92 307.27C501.86 311.4 497.06 313.47 491.52 313.47L419.84 313.47C419.84 350.69 412.69 382.26 398.4 408.16L464.96 476.41C469.01 480.55 471.04 485.44 471.04 491.1C471.04 496.76 469.01 501.66 464.96 505.8C461.12 509.93 456.32 512 450.56 512C444.8 512 440 509.93 436.16 505.8L372.8 441.47C371.73 442.56 370.13 443.97 368 445.71C365.87 447.46 361.39 450.56 354.56 455.02C347.73 459.48 340.8 463.46 333.76 466.94C326.72 470.42 317.97 473.58 307.52 476.41C297.07 479.24 286.72 480.65 276.48 480.65L276.48 188.08L235.52 188.08L235.52 480.65C224.64 480.65 213.81 479.18 203.04 476.24C192.27 473.31 182.98 469.71 175.2 465.47C167.41 461.22 160.37 456.98 154.08 452.73C147.79 448.49 143.15 444.95 140.16 442.12L135.36 437.55L76.8 505.14C72.53 509.71 67.41 512 61.44 512C56.32 512 51.73 510.26 47.68 506.78C43.62 502.86 41.44 498.01 41.12 492.24C40.8 486.47 42.45 481.41 46.08 477.06L110.72 402.94C98.34 378.12 92.16 348.3 92.16 313.47L20.48 313.47C14.93 313.47 10.13 311.4 6.08 307.27C2.02 303.13 0 298.23 0 292.57C0 286.91 2.02 282.02 6.08 277.88C10.13 273.74 14.93 271.67 20.48 271.67L92.16 271.67L92.16 175.67L36.8 119.18C32.74 115.05 30.72 110.15 30.72 104.49C30.72 98.83 32.74 93.93 36.8 89.8C40.85 85.66 45.65 83.59 51.2 83.59C56.74 83.59 61.54 85.66 65.6 89.8L120.96 146.29L391.04 146.29L446.4 89.8C450.45 85.66 455.25 83.59 460.8 83.59C466.34 83.59 471.14 85.66 475.2 89.8C479.25 93.93 481.28 98.83 481.28 104.49C481.28 110.15 479.25 115.05 475.2 119.18L419.84 175.67L419.84 271.67L491.52 271.67L491.52 271.67ZM328.48 30.53C308.53 10.18 284.37 0 256 0C227.62 0 203.46 10.18 183.52 30.53C163.57 50.89 153.6 75.54 153.6 104.49L358.4 104.49C358.4 75.54 348.42 50.89 328.48 30.53Z" />
</svg>