<svg version="1.2" baseProfile="tiny-ps" xmlns="http://www.w3.org/2000/svg" viewBox="0 0 100 100" width="100" height="100">
	<title>bug1-svg</title>
	<style>
		tspan { white-space:pre }
		.shp0 { fill: none;stroke: #80d4ff;stroke-linecap:round;stroke-linejoin:round;stroke-width: 2.5 } 
	</style>
	<path id="Shape 1" class="shp0" d="M93.89 52.92C94.92 52.92 95.82 53.31 96.57 54.08C97.33 54.85 97.71 55.76 97.71 56.82C97.71 57.87 97.33 58.78 96.57 59.55C95.82 60.32 94.92 60.71 93.89 60.71L80.53 60.71C80.53 67.65 79.2 73.53 76.54 78.36L88.94 91.07C89.7 91.85 90.08 92.76 90.08 93.81C90.08 94.87 89.7 95.78 88.94 96.55C88.23 97.32 87.33 97.71 86.26 97.71C85.19 97.71 84.29 97.32 83.57 96.55L71.77 84.56C71.57 84.77 71.27 85.03 70.87 85.35C70.48 85.68 69.64 86.26 68.37 87.09C67.09 87.92 65.8 88.66 64.49 89.31C63.18 89.96 61.55 90.55 59.6 91.07C57.65 91.6 55.72 91.86 53.82 91.86L53.82 37.34L46.18 37.34L46.18 91.86C44.15 91.86 42.14 91.59 40.13 91.04C38.12 90.5 36.39 89.83 34.94 89.04C33.49 88.24 32.18 87.45 31.01 86.66C29.83 85.87 28.97 85.21 28.41 84.69L27.52 83.83L16.6 96.43C15.81 97.28 14.85 97.71 13.74 97.71C12.79 97.71 11.93 97.38 11.18 96.74C10.42 96.01 10.01 95.1 9.96 94.03C9.9 92.95 10.2 92.01 10.88 91.2L22.93 77.38C20.62 72.76 19.47 67.2 19.47 60.71L6.11 60.71C5.07 60.71 4.18 60.32 3.43 59.55C2.67 58.78 2.29 57.87 2.29 56.82C2.29 55.76 2.67 54.85 3.43 54.08C4.18 53.31 5.07 52.92 6.11 52.92L19.47 52.92L19.47 35.03L9.15 24.5C8.39 23.73 8.02 22.82 8.02 21.76C8.02 20.71 8.39 19.8 9.15 19.03C9.91 18.25 10.8 17.87 11.83 17.87C12.87 17.87 13.76 18.25 14.52 19.03L24.83 29.55L75.17 29.55L85.48 19.03C86.24 18.25 87.13 17.87 88.17 17.87C89.2 17.87 90.09 18.25 90.85 19.03C91.6 19.8 91.98 20.71 91.98 21.76C91.98 22.82 91.6 23.73 90.85 24.5L80.53 35.03L80.53 52.92L93.89 52.92L93.89 52.92ZM69.08 21.76L30.92 21.76C30.92 16.37 32.78 11.77 36.49 7.98C40.21 4.19 44.71 2.29 50 2.29C55.29 2.29 59.79 4.19 63.51 7.98C67.22 11.77 69.08 16.37 69.08 21.76Z" />
</svg>