<svg version="1.2" baseProfile="tiny-ps" xmlns="http://www.w3.org/2000/svg" viewBox="0 0 200 200" width="200" height="200">
	<title>New Project</title>
	<style>
		tspan { white-space:pre }
		.shp0 { fill: none;stroke: #ff8080;stroke-linecap:round;stroke-linejoin:round;stroke-width: 2.5 } 
	</style>
	<path id="Shape 1" class="shp0" d="M7 7L193 7L193 193L7 193L7 7Z" />
	<path id="Layer 1" class="shp0" d="M154.11 48.12C156.04 48.96 157 50.42 157 52.5L157 85.75C157 87.04 156.53 88.15 155.59 89.09C154.65 90.03 153.54 90.5 152.25 90.5L119 90.5C116.92 90.5 115.46 89.51 114.62 87.53C113.78 85.6 114.13 83.89 115.66 82.41L125.9 72.17C118.58 65.39 109.95 62 100 62C94.85 62 89.94 63 85.27 65.01C80.59 67.01 76.55 69.72 73.13 73.13C69.72 76.55 67.01 80.59 65.01 85.27C63 89.94 62 94.85 62 100C62 105.15 63 110.06 65.01 114.73C67.01 119.41 69.72 123.45 73.13 126.87C76.55 130.28 80.59 132.99 85.27 134.99C89.94 137 94.85 138 100 138C105.89 138 111.45 136.71 116.7 134.14C121.94 131.57 126.37 127.93 129.98 123.23C130.33 122.74 130.9 122.44 131.69 122.34C132.38 122.34 133 122.56 133.55 123.01L143.71 133.25C144.16 133.65 144.39 134.15 144.42 134.77C144.44 135.39 144.26 135.95 143.86 136.44C138.47 142.97 131.94 148.03 124.27 151.62C116.6 155.21 108.51 157 100 157C92.28 157 84.91 155.49 77.88 152.47C70.86 149.45 64.79 145.4 59.7 140.3C54.6 135.21 50.54 129.14 47.53 122.12C44.51 115.09 43 107.72 43 100C43 92.28 44.51 84.91 47.53 77.88C50.54 70.86 54.6 64.8 59.7 59.7C64.79 54.6 70.86 50.55 77.88 47.53C84.91 44.51 92.28 43 100 43C107.27 43 114.31 44.37 121.12 47.12C127.92 49.87 133.97 53.74 139.26 58.73L148.91 49.16C150.34 47.63 152.08 47.28 154.11 48.12L154.11 48.12Z" />
</svg>